<svg width="40" height="29" viewBox="0 0 40 29" fill="none" xmlns="http://www.w3.org/2000/svg">
<path d="M0 8C0 3.58172 3.58172 0 8 0H40V21C40 25.4183 36.4183 29 32 29H0V8Z" fill="#F5F5F5"/>
<path d="M27.4504 8.69971L13.6997 22.4504C13.1881 22.962 12.4076 22.9639 11.8984 22.4548C11.3893 21.9457 11.3912 21.1651 11.9028 20.6535L25.6535 6.90283C26.1651 6.39123 26.9457 6.38933 27.4548 6.89844C27.9639 7.40756 27.962 8.18811 27.4504 8.69971Z" fill="#145062"/>
<path d="M25.977 22.5032L12.2263 8.7525C11.7147 8.2409 11.7128 7.46035 12.2219 6.95124C12.731 6.44212 13.5116 6.44402 14.0232 6.95562L27.7739 20.7063C28.2855 21.2179 28.2874 21.9985 27.7783 22.5076C27.2692 23.0167 26.4886 23.0148 25.977 22.5032Z" fill="#145062"/>
</svg>
