<svg width="20" height="14" viewBox="0 0 20 14" fill="none" xmlns="http://www.w3.org/2000/svg">
<path d="M18.1611 0H1.75C0.787033 0 0 0.783572 0 1.75V12.25C0 13.2168 0.787539 14 1.75 14H18.1611C19.1241 14 19.9111 13.2164 19.9111 12.25V1.75C19.9111 0.783339 19.1237 0 18.1611 0ZM17.8924 1.16667L10.4076 8.67588C10.1796 8.90462 9.73167 8.90478 9.50351 8.67588L2.01872 1.16667H17.8924ZM1.16667 12.0355V1.96447L6.18586 7L1.16667 12.0355ZM2.01872 12.8333L7.00949 7.82631L8.67724 9.49951C9.36067 10.1852 10.5507 10.1849 11.2339 9.49951L12.9017 7.82635L17.8924 12.8333H2.01872ZM18.7444 12.0355L13.7253 7L18.7444 1.96447V12.0355Z" fill="white"/>
</svg>
