<svg width="11" height="21" viewBox="0 0 11 21" fill="none" xmlns="http://www.w3.org/2000/svg">
<path d="M3.2547 11.5641C3.18091 11.5641 1.55756 11.5641 0.81968 11.5641C0.426142 11.5641 0.303162 11.4165 0.303162 11.0476C0.303162 10.0638 0.303162 9.05532 0.303162 8.07148C0.303162 7.67794 0.450738 7.55496 0.81968 7.55496H3.2547C3.2547 7.48117 3.2547 6.0546 3.2547 5.3905C3.2547 4.40665 3.42687 3.472 3.91879 2.61114C4.43531 1.72568 5.17319 1.13537 6.10785 0.791025C6.72275 0.56966 7.33765 0.471275 8.00175 0.471275H10.4122C10.7565 0.471275 10.9041 0.618852 10.9041 0.963198V3.76716C10.9041 4.1115 10.7565 4.25908 10.4122 4.25908C9.74807 4.25908 9.08398 4.25908 8.41988 4.28367C7.75579 4.28367 7.41144 4.60342 7.41144 5.29212C7.38684 6.03 7.41144 6.74329 7.41144 7.50577H10.2646C10.6581 7.50577 10.8057 7.65334 10.8057 8.04688V11.023C10.8057 11.4165 10.6827 11.5395 10.2646 11.5395C9.37913 11.5395 7.48523 11.5395 7.41144 11.5395V19.5579C7.41144 19.976 7.28846 20.1236 6.84573 20.1236C5.81269 20.1236 4.80425 20.1236 3.77121 20.1236C3.40227 20.1236 3.2547 19.976 3.2547 19.6071C3.2547 17.0245 3.2547 11.6379 3.2547 11.5641V11.5641Z" fill="white"/>
</svg>
