<svg width="144" height="23" viewBox="0 0 144 23" fill="none" xmlns="http://www.w3.org/2000/svg">
<path d="M143.354 19.3536C143.549 19.1583 143.549 18.8417 143.354 18.6465L140.172 15.4645C139.976 15.2692 139.66 15.2692 139.464 15.4645C139.269 15.6597 139.269 15.9763 139.464 16.1716L142.293 19L139.464 21.8284C139.269 22.0237 139.269 22.3403 139.464 22.5355C139.66 22.7308 139.976 22.7308 140.172 22.5355L143.354 19.3536ZM-4.37114e-08 19.5L143 19.5L143 18.5L4.37114e-08 18.5L-4.37114e-08 19.5Z" fill="#FBA905"/>
<path d="M69.2614 8.99991C69.4819 9.303 69.7711 9.54957 70.1052 9.71944C70.4393 9.88932 70.8089 9.97768 71.1837 9.97729C71.3673 9.97729 71.5617 9.95569 71.7453 9.91249C73.6353 9.4535 77.156 8.57872 80.5687 7.63374L78.9325 11.4947C78.8569 11.662 78.8785 11.851 78.9757 12.0022C79.0783 12.1534 79.2457 12.2452 79.4293 12.2452C80.7847 12.2452 82.0699 11.6458 82.9393 10.5983C84.03 9.2969 85.4016 7.47715 85.9848 6.01918C86.3304 5.90039 86.6598 5.78699 86.9676 5.67899C90.2993 4.48022 92.308 3.68104 93.388 2.88186C93.8956 2.49847 94.1116 1.86128 93.9442 1.2565C93.8616 0.962752 93.691 0.701322 93.4555 0.507306C93.22 0.31329 92.9307 0.195978 92.6266 0.171122L90.8447 0.0145261C90.2021 -0.0394726 89.5487 0.0577243 88.9547 0.295319L82.2373 2.96826C80.3851 2.39047 77.3558 2.00708 75.6764 1.82888C74.645 1.71548 73.6407 2.08268 72.9225 2.82786C72.7929 2.95746 72.7389 3.14645 72.7821 3.32465C72.8253 3.50284 72.9549 3.64864 73.1277 3.71344L76.9832 5.06341L72.5931 6.80756L69.2938 4.77181C69.2269 4.72958 69.1513 4.70324 69.0726 4.69481C68.994 4.68639 68.9145 4.6961 68.8402 4.72321L67.366 5.22C67.204 5.274 67.0744 5.4036 67.0258 5.57099C66.9718 5.73299 67.0042 5.91119 67.1068 6.05158L69.2614 8.99991Z" fill="#156D88"/>
</svg>
