<svg width="15" height="18" viewBox="0 0 15 18" fill="none" xmlns="http://www.w3.org/2000/svg">
<path d="M8.04168 4.83366C8.04168 5.2939 7.66858 5.66699 7.20834 5.66699C6.74811 5.66699 6.37501 5.2939 6.37501 4.83366C6.37501 4.37342 6.74811 4.00033 7.20834 4.00033C7.66858 4.00033 8.04168 4.37342 8.04168 4.83366ZM6.58334 7.12533L6.58334 11.292C6.58334 11.6372 6.86317 11.917 7.20834 11.917C7.55352 11.917 7.83334 11.6372 7.83334 11.292V7.12533C7.83334 6.78015 7.55352 6.50033 7.20834 6.50033C6.86317 6.50033 6.58334 6.78015 6.58334 7.12533ZM0.333344 2.75033C0.333344 1.59973 1.26608 0.666992 2.41668 0.666992H12C13.1506 0.666992 14.0833 1.59973 14.0833 2.75033V14.6253C14.0833 14.9705 13.8035 15.2503 13.4583 15.2503H1.58334C1.58334 15.7106 1.95644 16.0837 2.41668 16.0837H13.4583C13.8035 16.0837 14.0833 16.3635 14.0833 16.7087C14.0833 17.0538 13.8035 17.3337 13.4583 17.3337H2.41668C1.26608 17.3337 0.333344 16.4009 0.333344 15.2503V2.75033ZM12.8333 14.0003V2.75033C12.8333 2.29009 12.4602 1.91699 12 1.91699H2.41668C1.95644 1.91699 1.58334 2.29009 1.58334 2.75033V14.0003H12.8333Z" fill="#00A5D3"/>
</svg>
