<svg width="25" height="25" viewBox="0 0 25 25" fill="none" xmlns="http://www.w3.org/2000/svg">
<mask id="mask0_5_3218" style="mask-type:luminance" maskUnits="userSpaceOnUse" x="0" y="0" width="25" height="25">
<path d="M0.888885 0.888672H24.1111V24.1109H0.888885V0.888672Z" fill="white"/>
</mask>
<g mask="url(#mask0_5_3218)">
<path fill-rule="evenodd" clip-rule="evenodd" d="M23.8276 6.01035C24.0089 6.1918 24.1109 6.43787 24.1109 6.69444C24.1109 6.95101 24.0089 7.19707 23.8276 7.37852L14.6354 16.5707C14.454 16.7521 14.2079 16.854 13.9513 16.854C13.6948 16.854 13.4487 16.7521 13.2672 16.5707L9.11337 12.4168L2.54052 18.9896C2.35803 19.1659 2.11361 19.2634 1.85991 19.2612C1.60621 19.259 1.36353 19.1572 1.18413 18.9778C1.00473 18.7984 0.902967 18.5558 0.900763 18.3021C0.898558 18.0484 0.996086 17.8039 1.17234 17.6215L8.42929 10.3645C8.61074 10.1831 8.8568 10.0812 9.11337 10.0812C9.36994 10.0812 9.61601 10.1831 9.79746 10.3645L13.9513 14.5184L22.4594 6.01035C22.6408 5.82895 22.8869 5.72705 23.1435 5.72705C23.4 5.72705 23.6461 5.82895 23.8276 6.01035Z" fill="white"/>
<path fill-rule="evenodd" clip-rule="evenodd" d="M16.3704 6.69464C16.3704 6.43802 16.4724 6.19191 16.6538 6.01045C16.8353 5.82899 17.0814 5.72705 17.338 5.72705H23.1436C23.4002 5.72705 23.6463 5.82899 23.8278 6.01045C24.0092 6.19191 24.1112 6.43802 24.1112 6.69464V12.5002C24.1112 12.7568 24.0092 13.0029 23.8278 13.1844C23.6463 13.3658 23.4002 13.4678 23.1436 13.4678C22.8869 13.4678 22.6408 13.3658 22.4594 13.1844C22.2779 13.0029 22.176 12.7568 22.176 12.5002V7.66224H17.338C17.0814 7.66224 16.8353 7.56029 16.6538 7.37883C16.4724 7.19738 16.3704 6.95126 16.3704 6.69464Z" fill="white"/>
</g>
</svg>
