<svg width="21" height="21" viewBox="0 0 21 21" fill="none" xmlns="http://www.w3.org/2000/svg">
<path d="M11.7682 10.5794C11.7682 11.551 10.9805 12.3387 10.0089 12.3387C9.03729 12.3387 8.2496 11.551 8.2496 10.5794C8.2496 9.60784 9.03729 8.82014 10.0089 8.82014C10.9805 8.82014 11.7682 9.60784 11.7682 10.5794Z" fill="white"/>
<path d="M12.9798 5.26227H7.03736C5.74386 5.26227 4.69165 6.31448 4.69165 7.60798V13.5505C4.69165 14.844 5.74386 15.8962 7.03736 15.8962H12.9798C14.2733 15.8962 15.3256 14.844 15.3256 13.5505V7.60798C15.3256 6.31448 14.2733 5.26227 12.9798 5.26227ZM10.0086 13.5114C8.39182 13.5114 7.07646 12.196 7.07646 10.5792C7.07646 8.96244 8.39182 7.64708 10.0086 7.64708C11.6254 7.64708 12.9407 8.96244 12.9407 10.5792C12.9407 12.196 11.6254 13.5114 10.0086 13.5114ZM13.3708 7.80346C13.0469 7.80346 12.7844 7.54093 12.7844 7.21703C12.7844 6.89313 13.0469 6.6306 13.3708 6.6306C13.6947 6.6306 13.9572 6.89313 13.9572 7.21703C13.9572 7.54093 13.6947 7.80346 13.3708 7.80346Z" fill="white"/>
<path d="M14.7381 0.571854H5.27759C2.3676 0.571854 6.10352e-05 2.93943 6.10352e-05 5.84938V15.3098C6.10352e-05 18.2198 2.36764 20.5874 5.27759 20.5874H14.7381C17.648 20.5874 20.0156 18.2198 20.0156 15.3098V5.84938C20.0156 2.93939 17.648 0.571854 14.7381 0.571854ZM16.4972 13.5507C16.4972 15.4906 14.9189 17.069 12.9789 17.069H7.03677C5.09679 17.069 3.51841 15.4906 3.51841 13.5507V7.60856C3.51841 5.66858 5.09679 4.09021 7.03677 4.09021H12.9789C14.9189 4.09021 16.4972 5.66858 16.4972 7.60856V13.5507Z" fill="white"/>
</svg>
