<svg width="14" height="19" viewBox="0 0 14 19" fill="none" xmlns="http://www.w3.org/2000/svg">
<path d="M9.8125 7C9.8125 8.58203 8.54688 9.8125 7 9.8125C5.41797 9.8125 4.1875 8.58203 4.1875 7C4.1875 5.45312 5.41797 4.1875 7 4.1875C8.54688 4.1875 9.8125 5.45312 9.8125 7ZM7 8.6875C7.91406 8.6875 8.6875 7.94922 8.6875 7C8.6875 6.08594 7.91406 5.3125 7 5.3125C6.05078 5.3125 5.3125 6.08594 5.3125 7C5.3125 7.94922 6.05078 8.6875 7 8.6875ZM13.75 7C13.75 10.0938 9.63672 15.543 7.80859 17.8281C7.38672 18.3555 6.57812 18.3555 6.15625 17.8281C4.32812 15.543 0.25 10.0938 0.25 7C0.25 3.27344 3.23828 0.25 7 0.25C10.7266 0.25 13.75 3.27344 13.75 7ZM7 1.375C3.87109 1.375 1.375 3.90625 1.375 7C1.375 7.5625 1.55078 8.30078 1.9375 9.25C2.32422 10.1641 2.85156 11.1484 3.48438 12.1328C4.67969 14.0664 6.08594 15.9297 7 17.0547C7.87891 15.9297 9.28516 14.0664 10.4805 12.1328C11.1133 11.1484 11.6406 10.1641 12.0273 9.25C12.4141 8.30078 12.625 7.5625 12.625 7C12.625 3.90625 10.0938 1.375 7 1.375Z" fill="white"/>
</svg>
