<svg width="27" height="13" viewBox="0 0 27 13" fill="none" xmlns="http://www.w3.org/2000/svg">
<path d="M2.26138 8.99991C2.48191 9.303 2.77106 9.54957 3.10519 9.71944C3.43931 9.88932 3.8089 9.97768 4.18373 9.97729C4.36733 9.97729 4.56172 9.95569 4.74532 9.91249C6.63527 9.4535 10.156 8.57872 13.5687 7.63374L11.9325 11.4947C11.8569 11.662 11.8785 11.851 11.9757 12.0022C12.0783 12.1534 12.2457 12.2452 12.4293 12.2452C13.7847 12.2452 15.0699 11.6459 15.9393 10.5983C17.03 9.29691 18.4016 7.47715 18.9848 6.01918C19.3304 5.90039 19.6598 5.78699 19.9676 5.67899C23.2993 4.48022 25.308 3.68104 26.388 2.88186C26.8956 2.49847 27.1116 1.86128 26.9442 1.2565C26.8616 0.962752 26.691 0.701322 26.4555 0.507306C26.22 0.31329 25.9307 0.195978 25.6266 0.171122L23.8447 0.0145261C23.2021 -0.0394726 22.5487 0.0577243 21.9547 0.295319L15.2373 2.96826C13.3851 2.39047 10.3558 2.00708 8.67642 1.82888C7.64505 1.71548 6.64067 2.08268 5.92249 2.82786C5.79289 2.95746 5.73889 3.14645 5.78209 3.32465C5.82529 3.50284 5.95489 3.64864 6.12768 3.71344L9.98319 5.06341L5.5931 6.80756L2.29378 4.77181C2.22691 4.72958 2.15126 4.70324 2.07263 4.69481C1.99399 4.68639 1.91448 4.6961 1.84019 4.72321L0.366021 5.22C0.204025 5.274 0.0744283 5.4036 0.0258294 5.57099C-0.0281693 5.73299 0.00422972 5.91119 0.106827 6.05158L2.26138 8.99991Z" fill="#156D88"/>
</svg>
