<svg width="22" height="22" viewBox="0 0 22 22" fill="none" xmlns="http://www.w3.org/2000/svg">
<path d="M21.6667 20.6126L15.9488 14.8948C17.3387 13.265 18.1019 11.1931 18.1014 9.05126C18.1025 4.06034 14.0411 0 9.05126 0C4.05925 0 0 4.06034 0 9.05126C0 14.0411 4.06034 18.1014 9.05018 18.1014C11.1924 18.1022 13.2647 17.3389 14.8948 15.9488L20.6126 21.6667L21.6667 20.6126ZM1.49067 9.05126C1.49067 4.88259 4.88259 1.49067 9.05126 1.49067C13.2188 1.49067 16.6108 4.88259 16.6108 9.05126C16.6082 11.0554 15.8109 12.9767 14.3938 14.3938C12.9767 15.8109 11.0554 16.6082 9.05126 16.6108C4.88259 16.6108 1.49067 13.2188 1.49067 9.05126Z" fill="white"/>
</svg>
