<svg width="21" height="20" viewBox="0 0 21 20" fill="none" xmlns="http://www.w3.org/2000/svg">
<path d="M20.8333 19.027L15.5553 13.749C16.8382 12.2446 17.5427 10.3321 17.5423 8.355C17.5433 3.748 13.7943 0 9.18825 0C4.58025 0 0.833252 3.748 0.833252 8.355C0.833252 12.961 4.58125 16.709 9.18725 16.709C11.1647 16.7097 13.0776 16.0051 14.5823 14.722L19.8603 20L20.8333 19.027ZM2.20925 8.355C2.20925 4.507 5.34025 1.376 9.18825 1.376C13.0353 1.376 16.1663 4.507 16.1663 8.355C16.1639 10.2049 15.4279 11.9784 14.1198 13.2866C12.8117 14.5947 11.0382 15.3306 9.18825 15.333C5.34025 15.333 2.20925 12.202 2.20925 8.355Z" fill="white"/>
</svg>
