<svg width="19" height="11" viewBox="0 0 19 11" fill="none" xmlns="http://www.w3.org/2000/svg">
<path d="M18.6085 1.72124C18.3896 1.04818 17.7478 0.517618 16.934 0.336384C15.4472 0 9.49979 0 9.49979 0C9.49979 0 3.55265 0 2.06584 0.323631C1.26764 0.504672 0.610218 1.04828 0.391273 1.72124C0 2.95056 0 5.5 0 5.5C0 5.5 0 8.06229 0.391273 9.27876C0.61045 9.95172 1.25198 10.4823 2.06595 10.6635C3.56831 11 9.50002 11 9.50002 11C9.50002 11 15.4472 11 16.934 10.6764C17.7479 10.4952 18.3896 9.96467 18.6088 9.29171C18.9999 8.06229 18.9999 5.51295 18.9999 5.51295C18.9999 5.51295 19.0156 2.95056 18.6085 1.72124V1.72124ZM7.60628 7.85527V3.14473L12.5518 5.5L7.60628 7.85527Z" fill="white"/>
</svg>
